<svg width="30" height="30" viewBox="0 0 30 30" fill="none" xmlns="http://www.w3.org/2000/svg">
<path d="M29.983 23.6755C29.9114 23.2331 29.6342 22.855 29.2189 22.6304L23.0753 19.0096L23.0247 18.9813C22.7671 18.8523 22.4826 18.7862 22.1946 18.7884C21.6799 18.7884 21.1883 18.9835 20.8471 19.3256L19.0338 21.1402C18.9563 21.214 18.7034 21.3207 18.6267 21.3246C18.6057 21.3228 16.5168 21.1724 12.6713 17.3253C8.83253 13.4863 8.66967 11.3904 8.66838 11.3904C8.67053 11.2832 8.77595 11.0312 8.85095 10.9531L10.3972 9.40685C10.942 8.86069 11.1052 7.95529 10.7821 7.25394L7.36724 0.826523C7.11909 0.315519 6.63695 0 6.10209 0C5.72366 0 5.35852 0.156902 5.07309 0.441984L0.858074 4.64876C0.45393 5.05088 0.105929 5.75394 0.0300714 6.31982C-0.00678586 6.59032 -0.754645 13.0473 8.09538 21.9011C15.6087 29.4157 21.4673 29.9996 23.0851 29.9996C23.2822 30.0022 23.4791 29.992 23.6749 29.9692C24.2389 29.8937 24.9409 29.5465 25.3424 29.1439L29.554 24.9316C29.8977 24.5861 30.0546 24.1295 29.983 23.6755Z" fill="white"/>
</svg>
