<svg width="20" height="18" viewBox="0 0 20 18" fill="none" xmlns="http://www.w3.org/2000/svg">
<path d="M19.9399 16.7062L13.4474 10.863C14.4549 9.69071 14.9999 8.25746 14.9999 6.74997C14.9999 4.94548 14.2174 3.25349 12.8024 1.97774C11.3874 0.701997 9.50246 0 7.49997 0C5.49748 0 3.61248 0.704247 2.19749 1.97774C0.779996 3.25124 0 4.94548 0 6.74997C0 8.55221 0.782496 10.2487 2.19749 11.5222C3.61248 12.7979 5.49498 13.4999 7.49997 13.4999C9.17496 13.4999 10.765 13.0094 12.0674 12.1049L18.5599 17.9459C18.579 17.9631 18.6016 17.9767 18.6264 17.9859C18.6513 17.9952 18.678 18 18.7049 18C18.7318 18 18.7585 17.9952 18.7834 17.9859C18.8083 17.9767 18.8309 17.9631 18.8499 17.9459L19.9399 16.9672C19.959 16.95 19.9741 16.9297 19.9844 16.9073C19.9947 16.8849 20 16.8609 20 16.8367C20 16.8124 19.9947 16.7884 19.9844 16.766C19.9741 16.7437 19.959 16.7233 19.9399 16.7062ZM11.46 10.314C10.4 11.2657 8.99496 11.7899 7.49997 11.7899C6.00497 11.7899 4.59998 11.2657 3.53998 10.314C2.48249 9.35996 1.89999 8.09546 1.89999 6.74997C1.89999 5.40448 2.48249 4.13773 3.53998 3.18599C4.59998 2.23424 6.00497 1.70999 7.49997 1.70999C8.99496 1.70999 10.4025 2.23199 11.46 3.18599C12.5174 4.13998 13.0999 5.40448 13.0999 6.74997C13.0999 8.09546 12.5174 9.36221 11.46 10.314Z" fill="black"/>
</svg>
