<?xml version="1.0" encoding="utf-8"?><svg xmlns="http://www.w3.org/2000/svg" xmlns:xlink="http://www.w3.org/1999/xlink"><symbol viewBox="0 0 24 23" id="cart-icon" xmlns="http://www.w3.org/2000/svg"><path d="M9 22a1 1 0 100-2 1 1 0 000 2zm11 0a1 1 0 100-2 1 1 0 000 2zM1 1h4l2.68 13.39a2 2 0 002 1.61h9.72a2 2 0 002-1.61L23 6H6"/></symbol><symbol viewBox="0 0 32 32" id="fb-icon" xmlns="http://www.w3.org/2000/svg"><path d="M28.444 0H3.556A3.566 3.566 0 000 3.556v24.888C0 30.402 1.6 32 3.556 32H16V19.556h-3.556v-4.4H16V11.51c0-3.847 2.155-6.55 6.695-6.55l3.205.004v4.631h-2.128c-1.767 0-2.439 1.327-2.439 2.557v3.004H25.9l-1.01 4.399h-3.556V32h7.111A3.565 3.565 0 0032 28.444V3.556C32 1.6 30.4 0 28.444 0z"/></symbol><symbol viewBox="0 0 30 30" id="filter-icon" xmlns="http://www.w3.org/2000/svg"><path d="M14.12 30h-3.067V14.864L0 2.364V0h30v2.35l-10.526 12.5v10.065L14.12 30zm-.962-2h.09l4.12-3.915V14.15L27.6 2H2.428L13.16 14.136 13.158 28z"/></symbol><symbol viewBox="0 0 30 27" id="heart-icon" xmlns="http://www.w3.org/2000/svg"><path d="M2.688 13.545c-3-4-2-10 3-12s8 2 9 4c1-2 5-6 10-4s5 8 2 12-12 12-12 12-9-8-12-12z"/></symbol><symbol viewBox="0 0 30 30" id="phone-icon" xmlns="http://www.w3.org/2000/svg"><path d="M29.983 23.675a1.452 1.452 0 00-.764-1.045l-6.144-3.62-.05-.029a1.823 1.823 0 00-.83-.193c-.515 0-1.007.195-1.348.538l-1.813 1.814a1.06 1.06 0 01-.407.185c-.021-.002-2.11-.153-5.956-4-3.838-3.839-4.001-5.935-4.003-5.935a.969.969 0 01.183-.437l1.546-1.546c.545-.546.708-1.452.385-2.153L7.367.827C7.12.316 6.637 0 6.102 0c-.378 0-.743.157-1.029.442L.858 4.649C.454 5.05.106 5.754.03 6.319c-.037.271-.785 6.728 8.065 15.582C15.61 29.416 21.467 30 23.085 30c.197.002.394-.008.59-.03.564-.076 1.266-.423 1.667-.826l4.212-4.212c.344-.346.5-.802.429-1.256z"/></symbol><symbol viewBox="0 0 20 18" id="search-icon" xmlns="http://www.w3.org/2000/svg"><path d="M19.94 16.706l-6.493-5.843C14.455 9.691 15 8.257 15 6.75c0-1.805-.783-3.497-2.198-4.772C11.387.702 9.502 0 7.5 0 5.497 0 3.612.704 2.197 1.978.78 3.25 0 4.945 0 6.75c0 1.802.782 3.499 2.197 4.772C3.612 12.798 5.495 13.5 7.5 13.5c1.675 0 3.265-.49 4.567-1.395l6.493 5.84a.18.18 0 00.066.04.225.225 0 00.224-.04l1.09-.978a.184.184 0 00.044-.06.169.169 0 00-.044-.2zm-8.48-6.392c-1.06.952-2.465 1.476-3.96 1.476s-2.9-.524-3.96-1.476C2.482 9.36 1.9 8.095 1.9 6.75c0-1.346.582-2.612 1.64-3.564C4.6 2.234 6.005 1.71 7.5 1.71s2.902.522 3.96 1.476c1.057.954 1.64 2.218 1.64 3.564 0 1.345-.583 2.612-1.64 3.564z"/></symbol><symbol viewBox="0 0 26 26" id="sort-icon" xmlns="http://www.w3.org/2000/svg"><path d="M9.344 14.625h6.094v1.625H9.343v-1.625zm0-3.656h9.344v1.625H9.344v-1.625zm0-3.656h12.594v1.625H9.344V7.312zm0-3.657h15.844v1.625H9.344V3.656z"/><path d="M6.459 22.017V.813H4.834v21.204l-2.635-2.635-1.15 1.15 4.597 4.596 4.597-4.597-1.15-1.15-2.634 2.636z"/></symbol><symbol viewBox="0 0 24 22" id="star-icon" xmlns="http://www.w3.org/2000/svg"><path d="M12 0l2.694 8.292h8.719l-7.054 5.124 2.694 8.292L12 16.584l-7.053 5.124 2.694-8.292L.587 8.292h8.719L12 0z"/></symbol><symbol viewBox="0 0 24 27" id="user-icon" xmlns="http://www.w3.org/2000/svg"><path d="M12 13.5c3.787 0 6.857-3.022 6.857-6.75S15.787 0 12 0C8.213 0 5.143 3.022 5.143 6.75S8.213 13.5 12 13.5zm4.8 1.688h-.895a9.46 9.46 0 01-7.81 0H7.2c-3.975 0-7.2 3.174-7.2 7.087v2.194C0 25.866 1.152 27 2.571 27H21.43c1.419 0 2.57-1.134 2.57-2.531v-2.194c0-3.913-3.225-7.087-7.2-7.087z"/></symbol><symbol viewBox="0 0 32 32" id="vk-icon" xmlns="http://www.w3.org/2000/svg"><path d="M20.912 0h-9.823C2.125 0 0 2.125 0 11.089v9.823c0 8.964 2.125 11.089 11.089 11.089h9.823c8.964 0 11.089-2.125 11.089-11.089v-9.823C32.001 2.125 29.855 0 20.912 0zm4.922 22.828h-2.323c-.88 0-1.151-.698-2.734-2.302-1.375-1.333-1.984-1.51-2.323-1.51-.479 0-.615.135-.615.792v2.099c0 .563-.177.901-1.667.901-2.464 0-5.198-1.49-7.115-4.266-2.891-4.068-3.682-7.115-3.682-7.745 0-.339.135-.656.786-.656h2.328c.589 0 .813.271 1.042.901 1.151 3.323 3.068 6.234 3.859 6.234.292 0 .427-.135.427-.88v-3.432c-.089-1.583-.922-1.719-.922-2.281 0-.271.224-.542.583-.542h3.661c.495 0 .677.271.677.854v4.63c0 .5.224.677.359.677.292 0 .542-.177 1.083-.719 1.672-1.875 2.87-4.766 2.87-4.766.156-.339.427-.656 1.016-.656h2.328c.698 0 .854.359.698.859-.292 1.354-3.141 5.375-3.141 5.375-.245.406-.339.583 0 1.036.25.339 1.063 1.042 1.604 1.672.995 1.13 1.76 2.078 1.964 2.734.229.651-.109.99-.766.99l.003.001z"/></symbol></svg>